<svg width="1466" height="1340" viewBox="0 0 1466 1340" fill="none" xmlns="http://www.w3.org/2000/svg">
<path d="M1456.47 18.0005C1225.66 134.28 1096.55 305.92 1043.87 457.667M1043.87 457.667C973.742 659.695 1039.08 826.461 1180.26 780.379C1278.79 748.218 1202.13 593.959 1043.87 457.667ZM1043.87 457.667C874.328 311.655 611.123 186.264 369.322 253.708C78.6052 334.797 214.427 638.342 419.705 900.684M419.705 900.684C566.93 1088.84 749.882 1255.79 836.829 1304.29C1009.56 1400.63 986.504 1038.06 419.705 900.684ZM419.705 900.684C303.376 872.49 164.144 853.781 -1 850.473" stroke="#7468F6" stroke-width="38.7832"/>
</svg>
